# xmcd
#
# Track frame offsets: 
#        150
#        19365
#        48860
#        71700
#        97237
#        121180
#        140075
#        169037
#
# Disc length: 2519 seconds
#
# Revision: 2
# Processed by: cddbd v1.5.1PL0 Copyright (c) Steve Scherf et al.
# Submitted via: ExactAudioCopy v0.90b3
#
DISCID=7209d508
DTITLE=Howlin' Wolf - The Collection - The Blues Greats
DYEAR=1988
DGENRE=Blues
TTITLE0=Shake It For Me
TTITLE1=Love Me
TTITLE2=Dust My Broom
TTITLE3=I Didn't Mean To Hurt Your Feelings
TTITLE4=Rockin' The Blues
TTITLE5=All My Life
TTITLE6=Going Down Slow
TTITLE7=Howlin' For My Darlin'
EXTD=
EXTT0=
EXTT1=
EXTT2=
EXTT3=
EXTT4=
EXTT5=
EXTT6=
EXTT7=
PLAYORDER=
